<svg width="88" height="110" viewBox="0 0 88 110" fill="none" xmlns="http://www.w3.org/2000/svg">
<path d="M18.1732 19.1342C3.63473 33.6728 0 48.2113 0 62.7498C0.000214844 88.1922 19.5276 110 43.6157 110C67.7038 110 87.2312 90.4726 87.2312 66.3845C87.2312 58.5719 85.1752 51.2401 81.5772 44.8977C83.4912 40.5439 86.4236 32.3347 86.4236 22.9035C86.4236 15.9032 84.8084 8.2309 79.962 0.96122C79.962 0.96122 43.6157 -6.30803 18.1732 19.1342ZM73.1372 11.1053C74.7204 14.6988 75.5201 18.6493 75.5201 22.9033C75.5201 27.9663 74.4145 32.6503 73.2438 36.1961C69.6164 33.5627 65.356 31.6536 60.5605 30.5468C42.3872 26.3534 24.1902 37.7266 19.9962 55.8997C16.6644 70.3408 25.7022 84.8033 40.1445 88.1366C51.7691 90.8189 63.4091 83.5439 66.0916 71.9195C67.154 67.3184 66.3596 62.5807 63.8579 58.5768C61.3554 54.5732 57.4442 51.7841 52.8439 50.7223C44.9551 48.9018 37.0555 53.8387 35.2344 61.728L45.8591 64.18C46.3277 62.1493 48.3612 60.8782 50.3919 61.347C52.1543 61.7533 53.6528 62.8224 54.611 64.3557C55.5699 65.8895 55.8741 67.7058 55.4665 69.4671C54.1362 75.2331 48.3623 78.8418 42.5963 77.5113C34.0124 75.5304 28.6396 66.9341 30.6213 58.3506C33.4628 46.0362 45.7945 38.3293 58.1093 41.1708C64.6629 42.6831 69.513 46.1193 72.5247 51.3849C76.5861 58.484 77.0248 68.5959 73.7352 79.1467C68.7516 90.8615 57.1271 99.096 43.6157 99.096C25.8842 99.096 10.904 82.4512 10.904 62.7498C10.904 48.0821 15.3837 37.3444 25.8834 26.8444C34.4915 18.2362 45.6838 13.0469 59.149 11.4209C64.8129 10.7373 69.7552 10.8503 73.1372 11.1053Z" fill="#FF8733"/>
</svg>
